<svg xmlns="http://www.w3.org/2000/svg" viewBox="0 0 64 64">
  <!-- Radar face background -->
  <circle cx="32" cy="32" r="30" fill="#121b24" />

  <!-- Outer radar circle (border) -->
  <circle cx="32" cy="32" r="30" fill="none" stroke="#4fc3f7" stroke-width="2"/>

  <!-- Concentric rings -->
  <circle cx="32" cy="32" r="10" fill="none" stroke="#4fc3f7" stroke-opacity="0.2" stroke-width="1"/>
  <circle cx="32" cy="32" r="20" fill="none" stroke="#4fc3f7" stroke-opacity="0.15" stroke-width="1"/>
  <circle cx="32" cy="32" r="26" fill="none" stroke="#4fc3f7" stroke-opacity="0.1" stroke-width="1"/>

  <!-- Radar sweep arc trail -->
  <path d="M32,32 L60,28 A28,28 0 0,0 50,10 Z"
        fill="#4fc3f7" fill-opacity="0.3"/>
  <path d="M32,32 L50,10 A28,28 0 0,0 44,6 Z"
        fill="#4fc3f7" fill-opacity="0.15"/>
  <path d="M32,32 L44,6 A28,28 0 0,0 38,4 Z"
        fill="#4fc3f7" fill-opacity="0.08"/>

  <!-- Sweeper line -->
  <line x1="32" y1="32" x2="60" y2="28" stroke="#81d4fa" stroke-width="2"/>

  <!-- Center pivot dot -->
  <circle cx="32" cy="32" r="2.5" fill="#4fc3f7"/>

  <!-- Red ping targets -->
  <circle cx="46" cy="16" r="2.2" fill="#e53935"/>
  <circle cx="36" cy="24" r="2.2" fill="#e53935"/>
  <circle cx="24" cy="40" r="2.2" fill="#e53935"/>
</svg>
